<?xml version="1.0" encoding="UTF-8"?>
<svg id="Layer_1" xmlns="http://www.w3.org/2000/svg" xmlns:xlink="http://www.w3.org/1999/xlink" version="1.1" viewBox="0 0 344 102">
  <!-- Generator: Adobe Illustrator 29.1.0, SVG Export Plug-In . SVG Version: 2.1.0 Build 142)  -->
  <defs>
    <style>
      .st0 {
        fill: none;
      }

      .st1 {
        fill: #efa65e;
      }

      .st2 {
        fill: #cbd99a;
      }

      .st3 {
        clip-path: url(#clippath-1);
      }

      .st4 {
        clip-path: url(#clippath-3);
      }

      .st5 {
        clip-path: url(#clippath-4);
      }

      .st6 {
        clip-path: url(#clippath-2);
      }

      .st7 {
        fill: #2c4b31;
      }

      .st8 {
        clip-path: url(#clippath);
      }
    </style>
    <clipPath id="clippath">
      <rect class="st0" x="39" y="71" width="30.7" height="22.2"/>
    </clipPath>
    <clipPath id="clippath-1">
      <rect class="st0" x="8.3" y="71" width="32" height="22.2"/>
    </clipPath>
    <clipPath id="clippath-2">
      <rect class="st0" x="7.7" y="12.7" width="63.1" height="80.5"/>
    </clipPath>
    <clipPath id="clippath-3">
      <rect class="st0" x="31.4" y="33.7" width="15.5" height="15.5"/>
    </clipPath>
    <clipPath id="clippath-4">
      <path class="st0" d="M39.2,33.7c-4.3,0-7.7,3.5-7.7,7.7s3.5,7.7,7.7,7.7,7.7-3.5,7.7-7.7-3.5-7.7-7.7-7.7Z"/>
    </clipPath>
  </defs>
  <path d="M76.9,41.1h9.1v35.7h-9.1v-35.7Z"/>
  <path d="M98.4,50.3c4.3,0,7.6,1,9.9,3,2.3,2,3.4,5,3.4,9.1v14.5h-8.5v-3.4c-1.3,2.5-3.9,3.8-7.7,3.8s-3.8-.4-5.2-1.1c-1.5-.7-2.6-1.7-3.4-2.9-.8-1.2-1.1-2.6-1.1-4.1,0-2.5.9-4.4,2.8-5.7,1.9-1.4,4.8-2,8.8-2h5.2c-.2-2.8-2-4.1-5.5-4.1s-2.5.2-3.8.6c-1.3.4-2.4,1-3.3,1.7l-3.1-6.2c1.4-1,3.2-1.7,5.3-2.2,2.1-.5,4.1-.8,6.2-.8ZM98,71.5c1.1,0,2-.3,2.8-.8.8-.5,1.4-1.3,1.7-2.3v-2.3h-3.9c-2.7,0-4,.9-4,2.6s.3,1.5.9,1.9c.6.5,1.4.7,2.5.7Z"/>
  <path d="M129.7,50.3c3.2,0,5.8,1,7.8,2.9,2,1.9,3,4.8,3,8.7v14.9h-9.1v-13.4c0-3.6-1.4-5.3-4.3-5.3s-2.8.5-3.8,1.5c-.9,1-1.4,2.6-1.4,4.6v12.6h-9.1v-26h8.7v2.8c1-1.1,2.2-1.9,3.6-2.4,1.4-.6,3-.9,4.6-.9Z"/>
  <path d="M169.2,41.1v35.7h-8.7v-2.6c-1.7,2-4.2,3-7.6,3s-4.5-.5-6.5-1.6c-1.9-1.1-3.5-2.7-4.6-4.8-1.1-2.1-1.7-4.4-1.7-7.1s.6-5,1.7-7.1c1.1-2,2.7-3.6,4.6-4.7,2-1.1,4.1-1.6,6.5-1.6s5.5.9,7.2,2.7v-11.9h9.1ZM154.7,70c1.6,0,2.9-.5,3.9-1.6,1-1.1,1.5-2.6,1.5-4.6s-.5-3.4-1.5-4.5c-1-1.1-2.3-1.6-3.9-1.6s-2.9.6-3.9,1.6c-1,1.1-1.5,2.6-1.5,4.5s.5,3.5,1.5,4.6c1,1.1,2.3,1.6,3.9,1.6Z"/>
  <path d="M179.8,77.2c-2.2,0-4.3-.3-6.4-.8-2.1-.5-3.8-1.1-5.1-1.9l2.7-6.3c1.2.7,2.6,1.3,4.2,1.8,1.6.4,3.3.6,4.9.6s2.5-.2,3.1-.5c.6-.3.9-.7.9-1.3s-.4-1-1.1-1.2c-.8-.2-1.9-.5-3.6-.7-2.1-.3-3.9-.6-5.3-1s-2.7-1.2-3.8-2.3c-1.1-1.1-1.6-2.7-1.6-4.7s.5-3.1,1.5-4.4c1-1.3,2.4-2.3,4.4-3.1,1.9-.8,4.2-1.1,6.9-1.1s3.8.2,5.6.6c1.9.4,3.4.9,4.7,1.6l-2.8,6.2c-2.3-1.3-4.8-1.9-7.5-1.9s-2.5.2-3.2.5c-.7.3-1,.8-1,1.3s.4,1,1.1,1.3c.7.2,1.9.5,3.6.8,2.2.3,3.9.7,5.3,1.1,1.4.4,2.6,1.2,3.7,2.3,1,1.1,1.6,2.6,1.6,4.6s-.5,3.1-1.5,4.4c-1,1.3-2.5,2.3-4.4,3-1.9.7-4.3,1.1-7,1.1Z"/>
  <path d="M205.2,77.2c-2.9,0-5.5-.6-7.8-1.7-2.3-1.2-4-2.8-5.3-4.8-1.3-2.1-1.9-4.4-1.9-7s.6-4.9,1.9-6.9c1.3-2,3-3.6,5.3-4.8,2.3-1.1,4.9-1.7,7.8-1.7s5.5.6,7.6,1.9c2.2,1.3,3.7,3,4.6,5.3l-7.1,3.6c-1.2-2.3-2.9-3.5-5.2-3.5s-3,.6-4.1,1.6c-1.1,1.1-1.6,2.6-1.6,4.5s.5,3.5,1.6,4.6c1.1,1.1,2.4,1.6,4.1,1.6s4-1.2,5.2-3.5l7.1,3.6c-.9,2.3-2.4,4-4.6,5.3-2.1,1.3-4.7,1.9-7.6,1.9Z"/>
  <path d="M227.2,50.3c4.3,0,7.6,1,9.9,3,2.3,2,3.4,5,3.4,9.1v14.5h-8.5v-3.4c-1.3,2.5-3.9,3.8-7.7,3.8s-3.8-.4-5.2-1.1c-1.5-.7-2.6-1.7-3.4-2.9-.8-1.2-1.1-2.6-1.1-4.1,0-2.5.9-4.4,2.8-5.7,1.9-1.4,4.8-2,8.8-2h5.2c-.2-2.8-2-4.1-5.5-4.1s-2.5.2-3.8.6c-1.3.4-2.4,1-3.3,1.7l-3.1-6.2c1.4-1,3.2-1.7,5.3-2.2,2.1-.5,4.1-.8,6.2-.8ZM226.9,71.5c1.1,0,2-.3,2.8-.8.8-.5,1.4-1.3,1.7-2.3v-2.3h-3.9c-2.7,0-4,.9-4,2.6s.3,1.5.9,1.9c.6.5,1.4.7,2.5.7Z"/>
  <path d="M258,50.3c2.4,0,4.5.6,6.5,1.7,1.9,1.1,3.5,2.7,4.6,4.7,1.1,2,1.7,4.4,1.7,7.1s-.6,5.1-1.7,7.1c-1.1,2-2.7,3.6-4.6,4.7-1.9,1.1-4.1,1.6-6.5,1.6s-5.5-.9-7.3-2.8v11.6h-9.1v-35.4h8.7v2.6c1.7-2,4.3-3,7.7-3ZM256.1,70c1.6,0,2.9-.5,3.9-1.6,1-1.1,1.5-2.6,1.5-4.5s-.5-3.4-1.5-4.5c-1-1.1-2.3-1.7-3.9-1.7s-2.9.6-3.9,1.7c-1,1.1-1.5,2.6-1.5,4.5s.5,3.4,1.5,4.5c1,1.1,2.3,1.6,3.9,1.6Z"/>
  <path d="M270.3,50.8h9.1v26h-9.1v-26ZM274.9,47.9c-1.7,0-3-.5-4-1.4-1-.9-1.5-2.1-1.5-3.5s.5-2.5,1.5-3.5c1-.9,2.4-1.4,4-1.4s3,.4,4,1.3c1,.9,1.5,2,1.5,3.4s-.5,2.6-1.5,3.6c-1,.9-2.4,1.4-4,1.4Z"/>
  <path d="M297.6,50.3c3.2,0,5.8,1,7.8,2.9,2,1.9,3,4.8,3,8.7v14.9h-9.1v-13.4c0-3.6-1.4-5.3-4.3-5.3s-2.8.5-3.8,1.5c-.9,1-1.4,2.6-1.4,4.6v12.6h-9.1v-26h8.7v2.8c1-1.1,2.2-1.9,3.6-2.4,1.4-.6,3-.9,4.6-.9Z"/>
  <path d="M337.4,50.8v21.3c0,4.8-1.3,8.5-4,10.9-2.6,2.4-6.4,3.6-11.3,3.6s-5-.3-7.2-.9c-2.2-.6-4.1-1.4-5.7-2.5l3.3-6.4c1.1.9,2.4,1.5,4,2,1.6.5,3.2.8,4.8.8,2.4,0,4.2-.5,5.3-1.6,1.1-1.1,1.7-2.6,1.7-4.7v-.9c-1.8,2-4.3,3.1-7.7,3.1s-4.4-.5-6.4-1.6-3.5-2.5-4.7-4.4c-1.2-1.9-1.7-4.1-1.7-6.6s.6-4.7,1.7-6.6c1.2-1.9,2.7-3.4,4.7-4.4s4.1-1.6,6.4-1.6c3.7,0,6.4,1.2,8.2,3.6v-3.2h8.7ZM322.7,68.2c1.6,0,3-.5,4-1.5,1.1-1,1.6-2.3,1.6-3.9s-.5-2.8-1.6-3.8c-1.1-1-2.4-1.5-4.1-1.5s-3,.5-4.1,1.5c-1.1,1-1.6,2.2-1.6,3.8s.5,2.9,1.6,3.9c1.1,1,2.5,1.5,4.1,1.5Z"/>
  <path d="M101.8,6.8v35.7h-3.3v-5c-1,1.7-2.4,3-4.1,3.9-1.7.9-3.6,1.4-5.7,1.4s-4.5-.5-6.5-1.6c-1.9-1.1-3.4-2.6-4.5-4.6-1.1-2-1.6-4.2-1.6-6.7s.5-4.7,1.6-6.7c1.1-2,2.6-3.5,4.5-4.5,1.9-1.1,4.1-1.6,6.5-1.6s3.9.4,5.5,1.3c1.7.8,3,2.1,4.1,3.7V6.8h3.4ZM89.1,39.7c1.8,0,3.4-.4,4.8-1.2,1.4-.8,2.5-2,3.4-3.5.8-1.5,1.2-3.2,1.2-5.2s-.4-3.6-1.2-5.1c-.8-1.5-1.9-2.7-3.4-3.5-1.4-.8-3-1.2-4.8-1.2s-3.4.4-4.8,1.2c-1.4.8-2.5,2-3.4,3.5-.8,1.5-1.2,3.2-1.2,5.1s.4,3.7,1.2,5.2c.8,1.5,1.9,2.7,3.4,3.5,1.4.8,3,1.2,4.8,1.2Z"/>
  <path d="M106.6,17.2h3.4v25.3h-3.4v-25.3ZM108.4,11.6c-.7,0-1.3-.2-1.8-.7-.5-.5-.7-1.1-.7-1.7s.2-1.2.7-1.7c.5-.5,1.1-.7,1.8-.7s1.3.2,1.8.7c.5.5.7,1,.7,1.6s-.2,1.3-.7,1.8c-.5.5-1.1.7-1.8.7Z"/>
  <path d="M121.6,42.7c-2.1,0-4-.3-5.9-.9-1.9-.6-3.3-1.3-4.4-2.2l1.5-2.7c1.1.8,2.4,1.5,4,2.1,1.6.5,3.3.8,5,.8s4-.4,5.1-1.1c1.1-.7,1.7-1.7,1.7-3.1s-.3-1.7-.9-2.2c-.6-.5-1.4-.9-2.3-1.2-.9-.3-2.2-.5-3.7-.8-2-.4-3.7-.8-4.9-1.2-1.3-.4-2.3-1.1-3.2-2-.9-1-1.3-2.3-1.3-4s.9-3.8,2.6-5.2c1.8-1.3,4.2-2,7.4-2s3.3.2,4.9.7c1.6.4,3,1,4,1.7l-1.5,2.8c-2.1-1.4-4.6-2.2-7.4-2.2s-3.8.4-4.9,1.2c-1.1.8-1.6,1.8-1.6,3s.3,1.7.9,2.3c.6.6,1.4,1,2.3,1.3.9.3,2.2.5,3.9.8,2,.4,3.6.8,4.9,1.2,1.2.4,2.3,1,3.1,2,.9.9,1.3,2.2,1.3,3.8s-.9,4-2.8,5.3c-1.8,1.3-4.4,1.9-7.6,1.9Z"/>
  <path d="M144.1,42.7c-2.5,0-4.7-.5-6.7-1.6-2-1.1-3.5-2.6-4.6-4.6-1.1-2-1.7-4.2-1.7-6.7s.6-4.7,1.7-6.6,2.7-3.5,4.6-4.6c2-1.1,4.2-1.6,6.7-1.6s4.1.4,5.8,1.3c1.7.8,3.1,2.1,4.1,3.7l-2.6,1.7c-.8-1.3-1.9-2.2-3.2-2.8-1.3-.6-2.7-.9-4.2-.9s-3.5.4-4.9,1.2c-1.5.8-2.6,2-3.4,3.5-.8,1.5-1.2,3.2-1.2,5.1s.4,3.7,1.2,5.2c.8,1.5,2,2.6,3.4,3.5,1.5.8,3.1,1.2,4.9,1.2s2.9-.3,4.2-.9c1.3-.6,2.3-1.5,3.2-2.8l2.6,1.7c-1,1.6-2.4,2.9-4.1,3.7-1.7.8-3.7,1.3-5.8,1.3Z"/>
  <path d="M166.3,42.7c-2.4,0-4.6-.6-6.6-1.7-1.9-1.1-3.5-2.6-4.6-4.6-1.1-2-1.7-4.2-1.7-6.6s.6-4.7,1.7-6.6,2.7-3.5,4.6-4.6c2-1.1,4.2-1.6,6.6-1.6s4.6.6,6.6,1.6c2,1.1,3.5,2.6,4.6,4.6,1.1,2,1.7,4.2,1.7,6.6s-.6,4.7-1.7,6.6c-1.1,1.9-2.6,3.5-4.6,4.6-1.9,1.1-4.1,1.7-6.6,1.7ZM166.3,39.7c1.8,0,3.4-.4,4.8-1.2,1.4-.8,2.5-2,3.3-3.5.8-1.5,1.2-3.2,1.2-5.2s-.4-3.6-1.2-5.1c-.8-1.5-1.9-2.7-3.3-3.5-1.4-.8-3-1.2-4.8-1.2s-3.4.4-4.8,1.2c-1.4.8-2.5,2-3.4,3.5-.8,1.5-1.2,3.2-1.2,5.1s.4,3.7,1.2,5.2c.8,1.5,1.9,2.7,3.4,3.5,1.4.8,3,1.2,4.8,1.2Z"/>
  <path d="M204.2,17.2v25.3h-3.3v-4.6c-.9,1.5-2.1,2.7-3.7,3.6-1.6.8-3.4,1.3-5.4,1.3-3.3,0-5.9-.9-7.8-2.8-1.9-1.8-2.9-4.5-2.9-8.1v-14.6h3.4v14.3c0,2.7.7,4.7,2,6.1,1.3,1.4,3.2,2.1,5.6,2.1s4.8-.8,6.3-2.4c1.5-1.6,2.3-3.9,2.3-6.8v-13.3h3.4Z"/>
  <path d="M221.9,17c3.2,0,5.7.9,7.6,2.8,1.9,1.8,2.8,4.5,2.8,8v14.7h-3.4v-14.3c0-2.6-.7-4.6-2-6-1.3-1.4-3.2-2.1-5.6-2.1s-4.9.8-6.5,2.4c-1.6,1.6-2.4,3.8-2.4,6.7v13.3h-3.4v-25.3h3.3v4.6c.9-1.5,2.2-2.7,3.9-3.6,1.7-.9,3.6-1.3,5.8-1.3Z"/>
  <path d="M250.2,40.9c-.6.6-1.4,1-2.4,1.3-.9.3-1.9.5-3,.5-2.4,0-4.2-.6-5.5-1.9-1.3-1.3-1.9-3.1-1.9-5.4v-15.3h-4.5v-2.9h4.5v-5.5h3.4v5.5h7.7v2.9h-7.7v15.1c0,1.5.4,2.7,1.1,3.5.8.8,1.8,1.2,3.3,1.2s1.4-.1,2-.3c.7-.2,1.2-.5,1.7-1l1.2,2.4Z"/>
  <path d="M75.4,84.3h.9v7.9h4.9v.8h-5.8v-8.7Z"/>
  <path d="M95.7,90.7h-4.9l-1,2.3h-1l4-8.7h.9l4,8.7h-1l-1-2.3ZM95.3,90l-2.1-4.7-2.1,4.7h4.2Z"/>
  <path d="M109,93.1c-.7,0-1.3-.1-1.9-.3-.6-.2-1.1-.5-1.4-.8l.4-.7c.3.3.7.6,1.3.8.5.2,1.1.3,1.6.3s1.4-.1,1.8-.4c.4-.3.6-.7.6-1.1s-.1-.6-.3-.8-.5-.4-.8-.5c-.3-.1-.7-.2-1.3-.4-.7-.2-1.2-.3-1.6-.5-.4-.2-.7-.4-1-.7-.3-.3-.4-.7-.4-1.3s.1-.8.4-1.2c.2-.4.6-.6,1.1-.9.5-.2,1.1-.3,1.8-.3s1,0,1.4.2c.5.1.9.3,1.3.6l-.3.7c-.4-.2-.8-.4-1.2-.5s-.8-.2-1.2-.2c-.8,0-1.3.2-1.7.5-.4.3-.6.7-.6,1.1s.1.6.3.9.5.4.8.5c.3.1.8.2,1.3.4.6.2,1.2.3,1.5.5.4.2.7.4,1,.7.3.3.4.7.4,1.3s-.1.8-.4,1.2c-.2.4-.6.7-1.1.9-.5.2-1.1.3-1.8.3Z"/>
  <path d="M139.6,84.3l-3.9,8.7h-.9l-3.9-8.7h1l3.3,7.6,3.4-7.6h.9Z"/>
  <path d="M154.6,92.3v.8h-6.2v-8.7h6v.8h-5.1v3.1h4.5v.8h-4.5v3.3h5.3Z"/>
  <path d="M170.4,88.7h.9v3.3c-.4.4-.9.6-1.4.8-.6.2-1.1.3-1.8.3-.9,0-1.7-.2-2.4-.6-.7-.4-1.2-.9-1.6-1.6-.4-.7-.6-1.4-.6-2.3s.2-1.6.6-2.3c.4-.7.9-1.2,1.6-1.6.7-.4,1.5-.6,2.4-.6s1.3.1,1.8.3c.6.2,1,.5,1.4.9l-.6.6c-.7-.7-1.6-1-2.6-1s-1.3.2-1.9.5c-.6.3-1,.7-1.3,1.3-.3.6-.5,1.2-.5,1.9s.2,1.3.5,1.9c.3.5.8,1,1.3,1.3.6.3,1.2.5,1.9.5s1.6-.2,2.3-.7v-2.9Z"/>
  <path d="M186.8,90.7h-4.9l-1,2.3h-1l4-8.7h.9l4,8.7h-1l-1-2.3ZM186.5,90l-2.1-4.7-2.1,4.7h4.2Z"/>
  <path d="M200.1,93.1c-.7,0-1.3-.1-1.9-.3-.6-.2-1.1-.5-1.4-.8l.4-.7c.3.3.7.6,1.3.8.5.2,1.1.3,1.6.3s1.4-.1,1.8-.4c.4-.3.6-.7.6-1.1s-.1-.6-.3-.8-.5-.4-.8-.5c-.3-.1-.7-.2-1.3-.4-.7-.2-1.2-.3-1.6-.5-.4-.2-.7-.4-1-.7-.3-.3-.4-.7-.4-1.3s.1-.8.4-1.2c.2-.4.6-.6,1.1-.9.5-.2,1.1-.3,1.8-.3s1,0,1.4.2c.5.1.9.3,1.3.6l-.3.7c-.4-.2-.8-.4-1.2-.5s-.8-.2-1.2-.2c-.8,0-1.3.2-1.7.5-.4.3-.6.7-.6,1.1s.1.6.3.9.5.4.8.5c.3.1.8.2,1.3.4.6.2,1.2.3,1.5.5.4.2.7.4,1,.7.3.3.4.7.4,1.3s-.1.8-.4,1.2c-.2.4-.6.7-1.1.9-.5.2-1.1.3-1.8.3Z"/>
  <path class="st2" d="M56.8,48.2l-3.8,13.3s-12.1,9.2-13,20.8c0,0-1.4-7.7,1.4-16.1,2.7-8.5,8.6-16.1,16-19.3l-.6,1.3Z"/>
  <path class="st2" d="M21.6,48.2l3.8,13.3s12.1,9.2,13,20.8c0,0,1.4-7.7-1.4-16.1-2.7-8.5-8.6-16.1-16-19.3l.6,1.3Z"/>
  <path class="st2" d="M60.9,59.1l-9.3,17s-9.1,6.2-11.4,13.5c0,0-.6-.6-.5-4,.1-3.4,3.2-23.2,22.2-27.6l-1,1.1Z"/>
  <g class="st8">
    <path class="st2" d="M68.1,72.8l-19.9,19.8h-9s3.4-19.1,29.8-20.6l-.9.8Z"/>
  </g>
  <path class="st2" d="M17.5,59.1l9.3,17s9.1,6.2,11.4,13.5c0,0,.6-.6.5-4-.1-3.4-3.2-23.2-22.2-27.6l1,1.1Z"/>
  <g class="st3">
    <path class="st2" d="M10.3,72.8l19.9,19.8h9s-3.5-19.1-29.8-20.6l.9.8Z"/>
  </g>
  <g class="st6">
    <path class="st7" d="M39.2,12.7c-17.4,0-31.5,14.1-31.5,31.5v48.2c0,.5.4.9.8.9h61.3c.5,0,.9-.4.9-.9v-48.2c0-17.4-14.1-31.5-31.5-31.5ZM39.2,14.4c16.4,0,29.8,13.4,29.8,29.8v26.8c-3.7.1-7.2.7-10.3,1.6l4.3-14.5c0-.3,0-.6-.2-.8s-.5-.3-.8-.2c-1.2.3-2.4.7-3.5,1.1v-19.2c0-5.2-2-10-5.6-13.6-3.6-3.6-8.5-5.6-13.6-5.6-10.6,0-19.3,8.7-19.3,19.3v19.2c-1.1-.4-2.3-.8-3.5-1.1-.3,0-.6,0-.8.2-.2.2-.3.5-.2.8l4.3,14.5c-3.2-.9-6.6-1.4-10.3-1.6v-26.8c0-16.4,13.4-29.8,29.8-29.8ZM28.5,42.2c.2,2.3,1.1,4.4,2.5,6.1l-2.4,2.4c-2.1-1.9-4.5-3.3-7.1-4.3v-4.2h6.9ZM39.2,32.4c4.9,0,9,4,9,9s-4,9-9,9-9-4-9-9,4-9,9-9ZM49.8,42.2h6.9v4.2c-2.6,1-5,2.4-7.1,4.3l-2.4-2.4c1.4-1.7,2.3-3.8,2.5-6.1ZM40,52c2.3-.2,4.4-1.1,6.1-2.5l2.3,2.3c-3.9,4-6.7,9.6-8.4,16.7v-16.5ZM32.3,49.5c1.7,1.4,3.8,2.3,6.1,2.5v16.5c-1.7-7.1-4.5-12.7-8.4-16.6l2.3-2.3ZM60.9,59.1l-4.2,14.1c-9.6,3.4-14.3,9.8-16.5,14.2.2-2.6.7-6,1.9-9.6,3.2-9.6,9.5-15.9,18.8-18.8ZM40.4,77.3c0,.2-.1.4-.2.6.2-2.6.6-5.5,1.3-8.5,2.5-11,7.6-18.1,15.2-21.2v10.6c-9.7,4.3-14.2,12.2-16.3,18.5ZM56.8,40.5h-6.9c-.2-2.3-1.1-4.4-2.5-6.1l6-6c2.2,3,3.5,6.7,3.5,10.5v1.6ZM46.1,33.2c-1.7-1.4-3.8-2.3-6.1-2.5v-9.3c4.4.2,8.5,2,11.6,5.1.2.2.4.4.6.6l-6.1,6.1ZM38.3,30.7c-2.3.2-4.4,1.1-6.1,2.5l-6.1-6.1c3-3.3,7.3-5.5,12.2-5.8v9.3ZM25.1,28.5l6,6c-1.4,1.7-2.3,3.8-2.5,6.1h-6.9v-1.6c0-3.9,1.3-7.5,3.5-10.5ZM21.6,48.2c7.5,3.1,12.7,10.2,15.2,21.2.7,3,1.1,5.9,1.3,8.5,0-.2-.1-.4-.2-.6-2.1-6.3-6.6-14.2-16.3-18.5v-10.6ZM36.3,77.8c1.2,3.6,1.7,7,1.9,9.6-2.2-4.4-6.9-10.8-16.5-14.2l-4.2-14.2c9.3,2.9,15.6,9.1,18.8,18.7ZM20.7,74.7c12.3,4.2,16.3,13.7,17.3,16.9h-13.8l-14-18.8c3.8.2,7.3.9,10.4,1.9ZM57.6,74.7c3.1-1.1,6.6-1.7,10.4-1.9l-14,18.8h-13.8c1-3.1,5-12.7,17.3-16.9ZM9.4,74.4l12.8,17.1h-12.8v-17.1ZM56.2,91.5l12.8-17.1v17.1h-12.8Z"/>
  </g>
  <g class="st4">
    <g class="st5">
      <path class="st1" d="M31.4,33.7h15.5v15.5h-15.5v-15.5Z"/>
    </g>
  </g>
</svg>