<svg xmlns="http://www.w3.org/2000/svg" id="Layer_1" version="1.1" viewBox="0 0 344 102"><defs><clipPath id="clippath"><path d="M39 71h30.7v22.2H39z" class="st0"/></clipPath><clipPath id="clippath-1"><path d="M8.3 71h32v22.2h-32z" class="st0"/></clipPath><clipPath id="clippath-2"><path d="M7.7 12.7h63.1v80.5H7.7z" class="st0"/></clipPath><clipPath id="clippath-3"><path d="M31.4 33.7h15.5v15.5H31.4z" class="st0"/></clipPath><clipPath id="clippath-4"><path d="M39.2 33.7c-4.3 0-7.7 3.5-7.7 7.7s3.5 7.7 7.7 7.7 7.7-3.5 7.7-7.7-3.5-7.7-7.7-7.7" class="st0"/></clipPath><style>.st0{fill:none}.st2{fill:#cbd99a}</style></defs><path d="M76.9 41.1H86v35.7h-9.1z"/><path d="M98.4 50.3q6.45 0 9.9 3c2.3 2 3.4 5 3.4 9.1v14.5h-8.5v-3.4c-1.3 2.5-3.9 3.8-7.7 3.8s-3.8-.4-5.2-1.1c-1.5-.7-2.6-1.7-3.4-2.9s-1.1-2.6-1.1-4.1c0-2.5.9-4.4 2.8-5.7 1.9-1.4 4.8-2 8.8-2h5.2c-.2-2.8-2-4.1-5.5-4.1s-2.5.2-3.8.6-2.4 1-3.3 1.7l-3.1-6.2c1.4-1 3.2-1.7 5.3-2.2s4.1-.8 6.2-.8ZM98 71.5c1.1 0 2-.3 2.8-.8s1.4-1.3 1.7-2.3v-2.3h-3.9c-2.7 0-4 .9-4 2.6s.3 1.5.9 1.9c.6.5 1.4.7 2.5.7Zm31.7-21.2c3.2 0 5.8 1 7.8 2.9q3 2.85 3 8.7v14.9h-9.1V63.4c0-3.6-1.4-5.3-4.3-5.3s-2.8.5-3.8 1.5c-.9 1-1.4 2.6-1.4 4.6v12.6h-9.1v-26h8.7v2.8q1.5-1.65 3.6-2.4c1.4-.6 3-.9 4.6-.9"/><path d="M169.2 41.1v35.7h-8.7v-2.6c-1.7 2-4.2 3-7.6 3s-4.5-.5-6.5-1.6c-1.9-1.1-3.5-2.7-4.6-4.8s-1.7-4.4-1.7-7.1.6-5 1.7-7.1c1.1-2 2.7-3.6 4.6-4.7 2-1.1 4.1-1.6 6.5-1.6s5.5.9 7.2 2.7V41.1zM154.7 70c1.6 0 2.9-.5 3.9-1.6s1.5-2.6 1.5-4.6-.5-3.4-1.5-4.5-2.3-1.6-3.9-1.6-2.9.6-3.9 1.6q-1.5 1.65-1.5 4.5c0 2.85.5 3.5 1.5 4.6s2.3 1.6 3.9 1.6"/><path d="M179.8 77.2c-2.2 0-4.3-.3-6.4-.8s-3.8-1.1-5.1-1.9l2.7-6.3q1.8 1.05 4.2 1.8c1.6.4 3.3.6 4.9.6s2.5-.2 3.1-.5.9-.7.9-1.3-.4-1-1.1-1.2c-.8-.2-1.9-.5-3.6-.7-2.1-.3-3.9-.6-5.3-1s-2.7-1.2-3.8-2.3-1.6-2.7-1.6-4.7.5-3.1 1.5-4.4 2.4-2.3 4.4-3.1c1.9-.8 4.2-1.1 6.9-1.1s3.8.2 5.6.6c1.9.4 3.4.9 4.7 1.6l-2.8 6.2c-2.3-1.3-4.8-1.9-7.5-1.9s-2.5.2-3.2.5-1 .8-1 1.3.4 1 1.1 1.3c.7.2 1.9.5 3.6.8 2.2.3 3.9.7 5.3 1.1s2.6 1.2 3.7 2.3c1 1.1 1.6 2.6 1.6 4.6s-.5 3.1-1.5 4.4-2.5 2.3-4.4 3-4.3 1.1-7 1.1Z"/><path d="M205.2 77.2c-2.9 0-5.5-.6-7.8-1.7-2.3-1.2-4-2.8-5.3-4.8-1.3-2.1-1.9-4.4-1.9-7s.6-4.9 1.9-6.9 3-3.6 5.3-4.8c2.3-1.1 4.9-1.7 7.8-1.7s5.5.6 7.6 1.9c2.2 1.3 3.7 3 4.6 5.3l-7.1 3.6c-1.2-2.3-2.9-3.5-5.2-3.5s-3 .6-4.1 1.6c-1.1 1.1-1.6 2.6-1.6 4.5s.5 3.5 1.6 4.6 2.4 1.6 4.1 1.6 4-1.2 5.2-3.5l7.1 3.6c-.9 2.3-2.4 4-4.6 5.3-2.1 1.3-4.7 1.9-7.6 1.9"/><path d="M227.2 50.3q6.45 0 9.9 3c2.3 2 3.4 5 3.4 9.1v14.5H232v-3.4c-1.3 2.5-3.9 3.8-7.7 3.8s-3.8-.4-5.2-1.1c-1.5-.7-2.6-1.7-3.4-2.9s-1.1-2.6-1.1-4.1c0-2.5.9-4.4 2.8-5.7 1.9-1.4 4.8-2 8.8-2h5.2c-.2-2.8-2-4.1-5.5-4.1s-2.5.2-3.8.6-2.4 1-3.3 1.7l-3.1-6.2c1.4-1 3.2-1.7 5.3-2.2s4.1-.8 6.2-.8Zm-.3 21.2c1.1 0 2-.3 2.8-.8s1.4-1.3 1.7-2.3v-2.3h-3.9c-2.7 0-4 .9-4 2.6s.3 1.5.9 1.9c.6.5 1.4.7 2.5.7ZM258 50.3c2.4 0 4.5.6 6.5 1.7 1.9 1.1 3.5 2.7 4.6 4.7s1.7 4.4 1.7 7.1-.6 5.1-1.7 7.1-2.7 3.6-4.6 4.7-4.1 1.6-6.5 1.6-5.5-.9-7.3-2.8V86h-9.1V50.6h8.7v2.6c1.7-2 4.3-3 7.7-3ZM256.1 70c1.6 0 2.9-.5 3.9-1.6q1.5-1.65 1.5-4.5c0-2.85-.5-3.4-1.5-4.5s-2.3-1.7-3.9-1.7-2.9.6-3.9 1.7q-1.5 1.65-1.5 4.5c0 2.85.5 3.4 1.5 4.5s2.3 1.6 3.9 1.6"/><path d="M270.3 50.8h9.1v26h-9.1zm4.6-2.9c-1.7 0-3-.5-4-1.4s-1.5-2.1-1.5-3.5.5-2.5 1.5-3.5c1-.9 2.4-1.4 4-1.4s3 .4 4 1.3 1.5 2 1.5 3.4-.5 2.6-1.5 3.6c-1 .9-2.4 1.4-4 1.4Zm22.7 2.4c3.2 0 5.8 1 7.8 2.9q3 2.85 3 8.7v14.9h-9.1V63.4c0-3.6-1.4-5.3-4.3-5.3s-2.8.5-3.8 1.5c-.9 1-1.4 2.6-1.4 4.6v12.6h-9.1v-26h8.7v2.8q1.5-1.65 3.6-2.4c1.4-.6 3-.9 4.6-.9"/><path d="M337.4 50.8v21.3c0 4.8-1.3 8.5-4 10.9-2.6 2.4-6.4 3.6-11.3 3.6s-5-.3-7.2-.9-4.1-1.4-5.7-2.5l3.3-6.4c1.1.9 2.4 1.5 4 2s3.2.8 4.8.8c2.4 0 4.2-.5 5.3-1.6s1.7-2.6 1.7-4.7v-.9c-1.8 2-4.3 3.1-7.7 3.1s-4.4-.5-6.4-1.6-3.5-2.5-4.7-4.4-1.7-4.1-1.7-6.6.6-4.7 1.7-6.6c1.2-1.9 2.7-3.4 4.7-4.4s4.1-1.6 6.4-1.6c3.7 0 6.4 1.2 8.2 3.6v-3.2h8.7Zm-14.7 17.4c1.6 0 3-.5 4-1.5 1.1-1 1.6-2.3 1.6-3.9s-.5-2.8-1.6-3.8-2.4-1.5-4.1-1.5-3 .5-4.1 1.5-1.6 2.2-1.6 3.8.5 2.9 1.6 3.9 2.5 1.5 4.1 1.5ZM101.8 6.8v35.7h-3.3v-5c-1 1.7-2.4 3-4.1 3.9s-3.6 1.4-5.7 1.4-4.5-.5-6.5-1.6c-1.9-1.1-3.4-2.6-4.5-4.6s-1.6-4.2-1.6-6.7.5-4.7 1.6-6.7q1.65-3 4.5-4.5c1.9-1.1 4.1-1.6 6.5-1.6s3.9.4 5.5 1.3c1.7.8 3 2.1 4.1 3.7V6.8h3.4ZM89.1 39.7q2.7 0 4.8-1.2c1.4-.8 2.5-2 3.4-3.5.8-1.5 1.2-3.2 1.2-5.2s-.4-3.6-1.2-5.1-1.9-2.7-3.4-3.5Q91.8 20 89.1 20c-2.7 0-3.4.4-4.8 1.2s-2.5 2-3.4 3.5q-1.2 2.25-1.2 5.1c0 2.85.4 3.7 1.2 5.2s1.9 2.7 3.4 3.5q2.1 1.2 4.8 1.2m17.5-22.5h3.4v25.3h-3.4zm1.8-5.6c-.7 0-1.3-.2-1.8-.7s-.7-1.1-.7-1.7.2-1.2.7-1.7 1.1-.7 1.8-.7 1.3.2 1.8.7.7 1 .7 1.6-.2 1.3-.7 1.8-1.1.7-1.8.7m13.2 31.1c-2.1 0-4-.3-5.9-.9s-3.3-1.3-4.4-2.2l1.5-2.7c1.1.8 2.4 1.5 4 2.1 1.6.5 3.3.8 5 .8s4-.4 5.1-1.1 1.7-1.7 1.7-3.1-.3-1.7-.9-2.2-1.4-.9-2.3-1.2-2.2-.5-3.7-.8c-2-.4-3.7-.8-4.9-1.2-1.3-.4-2.3-1.1-3.2-2-.9-1-1.3-2.3-1.3-4s.9-3.8 2.6-5.2c1.8-1.3 4.2-2 7.4-2s3.3.2 4.9.7c1.6.4 3 1 4 1.7l-1.5 2.8c-2.1-1.4-4.6-2.2-7.4-2.2s-3.8.4-4.9 1.2-1.6 1.8-1.6 3 .3 1.7.9 2.3 1.4 1 2.3 1.3 2.2.5 3.9.8c2 .4 3.6.8 4.9 1.2 1.2.4 2.3 1 3.1 2 .9.9 1.3 2.2 1.3 3.8s-.9 4-2.8 5.3c-1.8 1.3-4.4 1.9-7.6 1.9Z"/><path d="M144.1 42.7c-2.5 0-4.7-.5-6.7-1.6s-3.5-2.6-4.6-4.6-1.7-4.2-1.7-6.7.6-4.7 1.7-6.6 2.7-3.5 4.6-4.6c2-1.1 4.2-1.6 6.7-1.6s4.1.4 5.8 1.3c1.7.8 3.1 2.1 4.1 3.7l-2.6 1.7c-.8-1.3-1.9-2.2-3.2-2.8q-1.95-.9-4.2-.9c-2.25 0-3.5.4-4.9 1.2-1.5.8-2.6 2-3.4 3.5q-1.2 2.25-1.2 5.1c0 2.85.4 3.7 1.2 5.2s2 2.6 3.4 3.5c1.5.8 3.1 1.2 4.9 1.2s2.9-.3 4.2-.9 2.3-1.5 3.2-2.8l2.6 1.7c-1 1.6-2.4 2.9-4.1 3.7s-3.7 1.3-5.8 1.3"/><path d="M166.3 42.7c-2.4 0-4.6-.6-6.6-1.7-1.9-1.1-3.5-2.6-4.6-4.6s-1.7-4.2-1.7-6.6.6-4.7 1.7-6.6 2.7-3.5 4.6-4.6c2-1.1 4.2-1.6 6.6-1.6s4.6.6 6.6 1.6c2 1.1 3.5 2.6 4.6 4.6s1.7 4.2 1.7 6.6-.6 4.7-1.7 6.6-2.6 3.5-4.6 4.6c-1.9 1.1-4.1 1.7-6.6 1.7m0-3q2.7 0 4.8-1.2c1.4-.8 2.5-2 3.3-3.5s1.2-3.2 1.2-5.2-.4-3.6-1.2-5.1-1.9-2.7-3.3-3.5Q169 20 166.3 20c-2.7 0-3.4.4-4.8 1.2s-2.5 2-3.4 3.5q-1.2 2.25-1.2 5.1c0 2.85.4 3.7 1.2 5.2s1.9 2.7 3.4 3.5q2.1 1.2 4.8 1.2m37.9-22.5v25.3h-3.3v-4.6c-.9 1.5-2.1 2.7-3.7 3.6-1.6.8-3.4 1.3-5.4 1.3-3.3 0-5.9-.9-7.8-2.8-1.9-1.8-2.9-4.5-2.9-8.1V17.3h3.4v14.3c0 2.7.7 4.7 2 6.1s3.2 2.1 5.6 2.1 4.8-.8 6.3-2.4 2.3-3.9 2.3-6.8V17.3h3.4Zm17.7-.2c3.2 0 5.7.9 7.6 2.8 1.9 1.8 2.8 4.5 2.8 8v14.7h-3.4V28.2c0-2.6-.7-4.6-2-6s-3.2-2.1-5.6-2.1-4.9.8-6.5 2.4-2.4 3.8-2.4 6.7v13.3H209V17.2h3.3v4.6q1.35-2.25 3.9-3.6c1.7-.9 3.6-1.3 5.8-1.3Zm28.3 23.9c-.6.6-1.4 1-2.4 1.3-.9.3-1.9.5-3 .5-2.4 0-4.2-.6-5.5-1.9s-1.9-3.1-1.9-5.4V20.1h-4.5v-2.9h4.5v-5.5h3.4v5.5h7.7v2.9h-7.7v15.1c0 1.5.4 2.7 1.1 3.5.8.8 1.8 1.2 3.3 1.2s1.4-.1 2-.3c.7-.2 1.2-.5 1.7-1l1.2 2.4ZM75.4 84.3h.9v7.9h4.9v.8h-5.8zm20.3 6.4h-4.9l-1 2.3h-1l4-8.7h.9l4 8.7h-1zm-.4-.7-2.1-4.7-2.1 4.7zm13.7 3.1c-.7 0-1.3-.1-1.9-.3s-1.1-.5-1.4-.8l.4-.7c.3.3.7.6 1.3.8.5.2 1.1.3 1.6.3s1.4-.1 1.8-.4.6-.7.6-1.1-.1-.6-.3-.8-.5-.4-.8-.5-.7-.2-1.3-.4c-.7-.2-1.2-.3-1.6-.5s-.7-.4-1-.7-.4-.7-.4-1.3.1-.8.4-1.2c.2-.4.6-.6 1.1-.9q.75-.3 1.8-.3c1.05 0 1 0 1.4.2.5.1.9.3 1.3.6l-.3.7c-.4-.2-.8-.4-1.2-.5s-.8-.2-1.2-.2c-.8 0-1.3.2-1.7.5s-.6.7-.6 1.1.1.6.3.9.5.4.8.5.8.2 1.3.4c.6.2 1.2.3 1.5.5.4.2.7.4 1 .7s.4.7.4 1.3-.1.8-.4 1.2c-.2.4-.6.7-1.1.9q-.75.3-1.8.3Zm30.6-8.8-3.9 8.7h-.9l-3.9-8.7h1l3.3 7.6 3.4-7.6h.9Zm15 8v.8h-6.2v-8.7h6v.8h-5.1v3.1h4.5v.8h-4.5v3.3h5.3Zm15.8-3.6h.9V92c-.4.4-.9.6-1.4.8-.6.2-1.1.3-1.8.3q-1.35 0-2.4-.6c-.7-.4-1.2-.9-1.6-1.6s-.6-1.4-.6-2.3.2-1.6.6-2.3.9-1.2 1.6-1.6q1.05-.6 2.4-.6c1.35 0 1.3.1 1.8.3.6.2 1 .5 1.4.9l-.6.6c-.7-.7-1.6-1-2.6-1s-1.3.2-1.9.5-1 .7-1.3 1.3-.5 1.2-.5 1.9.2 1.3.5 1.9c.3.5.8 1 1.3 1.3.6.3 1.2.5 1.9.5s1.6-.2 2.3-.7zm16.4 2h-4.9l-1 2.3h-1l4-8.7h.9l4 8.7h-1zm-.3-.7-2.1-4.7-2.1 4.7zm13.6 3.1c-.7 0-1.3-.1-1.9-.3s-1.1-.5-1.4-.8l.4-.7c.3.3.7.6 1.3.8.5.2 1.1.3 1.6.3s1.4-.1 1.8-.4.6-.7.6-1.1-.1-.6-.3-.8-.5-.4-.8-.5-.7-.2-1.3-.4c-.7-.2-1.2-.3-1.6-.5s-.7-.4-1-.7-.4-.7-.4-1.3.1-.8.4-1.2c.2-.4.6-.6 1.1-.9q.75-.3 1.8-.3c1.05 0 1 0 1.4.2.5.1.9.3 1.3.6l-.3.7c-.4-.2-.8-.4-1.2-.5s-.8-.2-1.2-.2c-.8 0-1.3.2-1.7.5s-.6.7-.6 1.1.1.6.3.9.5.4.8.5.8.2 1.3.4c.6.2 1.2.3 1.5.5.4.2.7.4 1 .7s.4.7.4 1.3-.1.8-.4 1.2c-.2.4-.6.7-1.1.9q-.75.3-1.8.3Z"/><path d="M56.8 48.2 53 61.5s-12.1 9.2-13 20.8c0 0-1.4-7.7 1.4-16.1 2.7-8.5 8.6-16.1 16-19.3zm-35.2 0 3.8 13.3s12.1 9.2 13 20.8c0 0 1.4-7.7-1.4-16.1-2.7-8.5-8.6-16.1-16-19.3z" class="st2"/><path d="m60.9 59.1-9.3 17s-9.1 6.2-11.4 13.5c0 0-.6-.6-.5-4S42.9 62.4 61.9 58z" class="st2"/><path d="M68.1 72.8 48.2 92.6h-9S42.6 73.5 69 72z" class="st2" style="clip-path:url(#clippath)"/><path d="m17.5 59.1 9.3 17s9.1 6.2 11.4 13.5c0 0 .6-.6.5-4S35.5 62.4 16.5 58z" class="st2"/><path d="m10.3 72.8 19.9 19.8h9S35.7 73.5 9.4 72z" class="st2" style="clip-path:url(#clippath-1)"/><g style="clip-path:url(#clippath-2)"><path d="M39.2 12.7c-17.4 0-31.5 14.1-31.5 31.5v48.2c0 .5.4.9.8.9h61.3c.5 0 .9-.4.9-.9V44.2c0-17.4-14.1-31.5-31.5-31.5m0 1.7C55.6 14.4 69 27.8 69 44.2V71c-3.7.1-7.2.7-10.3 1.6L63 58.1c0-.3 0-.6-.2-.8s-.5-.3-.8-.2c-1.2.3-2.4.7-3.5 1.1V39c0-5.2-2-10-5.6-13.6s-8.5-5.6-13.6-5.6C28.7 19.8 20 28.5 20 39.1v19.2c-1.1-.4-2.3-.8-3.5-1.1-.3 0-.6 0-.8.2s-.3.5-.2.8l4.3 14.5c-3.2-.9-6.6-1.4-10.3-1.6V44.3c0-16.4 13.4-29.8 29.8-29.8ZM28.5 42.2c.2 2.3 1.1 4.4 2.5 6.1l-2.4 2.4c-2.1-1.9-4.5-3.3-7.1-4.3v-4.2h6.9Zm10.7-9.8c4.9 0 9 4 9 9s-4 9-9 9-9-4-9-9 4-9 9-9m10.6 9.8h6.9v4.2c-2.6 1-5 2.4-7.1 4.3l-2.4-2.4c1.4-1.7 2.3-3.8 2.5-6.1ZM40 52c2.3-.2 4.4-1.1 6.1-2.5l2.3 2.3c-3.9 4-6.7 9.6-8.4 16.7zm-7.7-2.5c1.7 1.4 3.8 2.3 6.1 2.5v16.5c-1.7-7.1-4.5-12.7-8.4-16.6l2.3-2.3Zm28.6 9.6-4.2 14.1c-9.6 3.4-14.3 9.8-16.5 14.2.2-2.6.7-6 1.9-9.6 3.2-9.6 9.5-15.9 18.8-18.8ZM40.4 77.3c0 .2-.1.4-.2.6.2-2.6.6-5.5 1.3-8.5 2.5-11 7.6-18.1 15.2-21.2v10.6C47 63.1 42.5 71 40.4 77.3m16.4-36.8h-6.9c-.2-2.3-1.1-4.4-2.5-6.1l6-6c2.2 3 3.5 6.7 3.5 10.5v1.6Zm-10.7-7.3c-1.7-1.4-3.8-2.3-6.1-2.5v-9.3c4.4.2 8.5 2 11.6 5.1l.6.6zm-7.8-2.5c-2.3.2-4.4 1.1-6.1 2.5l-6.1-6.1c3-3.3 7.3-5.5 12.2-5.8v9.3Zm-13.2-2.2 6 6c-1.4 1.7-2.3 3.8-2.5 6.1h-6.9V39c0-3.9 1.3-7.5 3.5-10.5Zm-3.5 19.7c7.5 3.1 12.7 10.2 15.2 21.2.7 3 1.1 5.9 1.3 8.5 0-.2-.1-.4-.2-.6-2.1-6.3-6.6-14.2-16.3-18.5zm14.7 29.6c1.2 3.6 1.7 7 1.9 9.6C36 83 31.3 76.6 21.7 73.2L17.5 59c9.3 2.9 15.6 9.1 18.8 18.7Zm-15.6-3.1C33 78.9 37 88.4 38 91.6H24.2l-14-18.8c3.8.2 7.3.9 10.4 1.9Zm36.9 0c3.1-1.1 6.6-1.7 10.4-1.9L54 91.6H40.2c1-3.1 5-12.7 17.3-16.9Zm-48.2-.3 12.8 17.1H9.4zm46.8 17.1L69 74.4v17.1z" style="fill:#2c4b31"/></g><g style="clip-path:url(#clippath-3)"><g style="clip-path:url(#clippath-4)"><path d="M31.4 33.7h15.5v15.5H31.4z" style="fill:#efa65e"/></g></g></svg>